<?xml version="1.0" standalone="no"?>
<!DOCTYPE svg PUBLIC "-//W3C//DTD SVG 20010904//EN"
 "http://www.w3.org/TR/2001/REC-SVG-20010904/DTD/svg10.dtd">
<svg version="1.0" xmlns="http://www.w3.org/2000/svg"
 width="1500.000000pt" height="1500.000000pt" viewBox="0 0 1500.000000 1500.000000"
 preserveAspectRatio="xMidYMid meet">

<g transform="translate(0.000000,1500.000000) scale(0.100000,-0.100000)"
fill="#000000" stroke="none">
<path d="M7015 14590 c-1615 -119 -3083 -743 -4275 -1815 -136 -123 -451 -440
-572 -577 -955 -1082 -1569 -2463 -1727 -3883 -33 -296 -41 -456 -41 -817 0
-439 19 -707 76 -1078 228 -1478 901 -2822 1949 -3889 566 -576 1187 -1032
1883 -1380 864 -433 1752 -673 2732 -741 190 -13 753 -13 955 0 598 39 1303
184 1855 381 909 325 1719 808 2415 1440 1376 1249 2190 2924 2325 4784 13
182 13 771 0 967 -165 2420 -1550 4585 -3685 5755 -392 215 -906 432 -1322
558 -435 132 -943 232 -1428 281 -187 19 -946 28 -1140 14z m-2387 -6112 c5
-28 -37 -41 -159 -48 -100 -6 -122 -10 -167 -35 -139 -76 -371 -380 -614 -805
-68 -119 -80 -137 -168 -270 -132 -198 -288 -368 -424 -464 -263 -187 -578
-236 -803 -126 -73 36 -144 110 -161 168 -26 86 -9 172 40 206 35 25 102 20
135 -8 22 -20 28 -32 27 -65 -2 -48 -23 -77 -65 -86 -24 -5 -29 -12 -29 -35 0
-173 280 -263 519 -167 233 94 426 297 681 717 96 158 291 444 371 545 140
177 299 322 424 386 l60 31 -195 -6 c-307 -9 -661 -68 -841 -140 -225 -90
-358 -219 -395 -382 -39 -178 32 -297 186 -311 143 -13 301 71 380 203 33 55
35 63 35 146 0 62 3 88 12 88 17 0 27 -61 20 -129 -11 -121 -98 -232 -235
-298 -65 -31 -88 -37 -168 -41 -75 -4 -105 -1 -162 17 -140 42 -212 151 -199
303 20 239 295 423 782 522 170 35 365 54 630 61 170 4 252 11 315 24 104 23
163 23 168 -1z m822 2 c0 -15 -78 -134 -621 -945 -207 -309 -351 -542 -394
-640 -34 -76 -38 -141 -10 -162 44 -32 161 17 283 118 67 57 72 63 72 101 0
85 59 153 144 164 44 6 52 12 100 73 82 104 138 197 148 248 14 63 83 133 159
159 70 24 170 24 231 1 150 -58 152 -233 4 -267 -19 -4 -37 -6 -40 -3 -2 2 3
25 11 49 10 29 14 66 11 101 -4 47 -10 60 -33 79 -57 45 -141 36 -194 -22 -33
-36 -33 -37 -29 -118 4 -66 12 -97 43 -165 84 -188 94 -263 50 -352 -29 -56
-92 -122 -145 -149 -46 -25 -16 -27 61 -4 137 40 309 154 455 301 75 75 118
134 274 374 101 156 230 354 285 439 55 85 167 259 248 386 131 205 152 232
179 238 48 10 128 7 128 -4 0 -11 -103 -168 -375 -570 -208 -308 -480 -712
-489 -727 -18 -32 7 -6 77 76 182 212 331 325 467 352 148 29 243 -71 196
-207 -19 -57 -104 -185 -210 -318 -144 -181 -192 -277 -168 -331 38 -84 233 6
445 205 62 59 107 111 123 142 135 267 386 474 617 509 156 24 248 -41 281
-199 8 -40 24 -86 36 -101 29 -42 95 -71 162 -71 69 0 108 13 179 61 64 43 67
48 418 604 58 91 111 171 118 177 13 11 149 15 159 5 7 -6 -49 -89 -241 -362
-189 -267 -276 -397 -271 -403 3 -2 19 13 37 34 198 235 389 315 530 221 83
-55 87 -215 10 -372 -22 -44 -63 -106 -92 -138 -28 -32 -49 -61 -45 -64 9 -10
130 24 208 58 104 45 201 112 256 176 186 220 328 323 503 367 77 19 92 19
160 5 64 -14 108 -52 115 -100 5 -30 1 -41 -22 -68 -30 -33 -119 -68 -129 -51
-3 5 -1 27 6 49 14 48 5 102 -21 126 -28 25 -96 22 -151 -5 -169 -86 -346
-309 -409 -518 -30 -97 -26 -212 8 -259 65 -91 246 -48 471 111 101 71 210
174 233 219 67 133 208 296 331 386 211 154 409 156 483 5 14 -29 28 -54 30
-54 2 0 20 30 40 68 21 37 43 70 48 75 13 8 145 7 150 -2 3 -3 -32 -58 -76
-121 -390 -555 -462 -709 -348 -745 47 -15 161 43 276 141 47 41 54 51 54 84
0 58 38 121 90 148 24 12 58 22 75 22 26 0 39 11 90 77 98 126 128 175 137
223 13 70 54 120 131 159 59 30 77 35 145 35 65 1 86 -4 134 -27 65 -32 89
-63 96 -124 8 -69 -52 -133 -125 -133 l-32 0 13 33 c37 88 25 167 -29 203 -37
24 -119 23 -154 -3 -77 -57 -80 -158 -8 -323 25 -58 50 -123 56 -145 17 -61
13 -145 -9 -192 -22 -51 -93 -124 -146 -152 -49 -25 -21 -28 57 -5 179 53 453
255 530 392 85 149 204 277 339 366 92 60 146 84 232 103 89 19 135 13 179
-24 29 -25 31 -30 27 -82 -5 -53 -8 -58 -63 -108 -90 -82 -306 -183 -488 -229
-75 -18 -85 -28 -112 -109 -38 -113 -29 -238 20 -287 32 -33 71 -40 140 -27
219 40 538 299 769 624 8 11 17 17 22 13 19 -19 -140 -221 -277 -353 -226
-217 -434 -328 -619 -329 -100 -1 -147 18 -194 77 -30 38 -31 41 -31 147 l0
108 -55 -52 c-253 -240 -614 -349 -814 -245 -44 22 -91 71 -102 104 -15 47
-23 45 -103 -19 -166 -134 -303 -161 -377 -73 -24 28 -26 37 -21 92 3 33 9 73
13 90 7 27 0 23 -73 -45 -178 -165 -359 -229 -448 -158 -14 11 -35 38 -47 61
-18 35 -20 53 -16 129 6 99 10 97 -72 27 -118 -101 -289 -199 -400 -229 -25
-7 -81 -13 -125 -14 -68 -1 -88 3 -130 25 -28 14 -60 40 -72 58 -44 65 -41
175 10 300 14 34 23 61 20 61 -2 0 -25 -14 -49 -31 -71 -49 -185 -97 -281
-120 -48 -11 -96 -22 -105 -25 -9 -3 -56 -37 -105 -76 -159 -129 -254 -180
-360 -193 -97 -12 -157 50 -118 123 36 67 167 117 370 142 60 7 96 17 107 28
39 39 120 192 148 279 32 98 40 206 20 258 -19 50 -102 61 -173 23 -83 -44
-212 -173 -330 -330 -160 -212 -588 -866 -797 -1215 l-73 -123 -73 0 c-41 0
-74 3 -74 6 0 12 283 463 508 809 47 72 105 162 130 200 25 39 88 135 139 214
52 79 92 145 90 147 -2 3 -26 -5 -53 -17 -108 -46 -202 -35 -279 33 -36 32
-50 39 -53 28 -3 -8 -27 -57 -53 -110 -156 -310 -491 -541 -713 -491 -108 24
-160 97 -161 224 0 42 -2 77 -5 77 -3 0 -26 -21 -50 -46 -25 -25 -78 -72 -118
-104 -199 -162 -342 -199 -427 -110 -24 25 -30 40 -33 93 -6 99 36 177 207
391 133 167 149 190 172 241 34 77 7 118 -75 117 -55 -1 -96 -20 -186 -83
-179 -126 -405 -396 -624 -746 l-26 -43 -75 0 c-42 0 -75 4 -75 10 0 5 38 68
85 140 47 72 85 133 85 136 0 3 -36 -24 -80 -61 -97 -81 -217 -155 -308 -189
-183 -69 -364 -71 -475 -6 -38 23 -80 72 -91 108 -4 12 -10 22 -14 22 -4 0
-40 -27 -80 -59 -125 -100 -218 -133 -311 -111 -65 15 -93 46 -99 109 -3 39 1
61 22 106 14 32 26 60 26 63 0 3 -44 -37 -97 -90 -116 -113 -190 -162 -274
-184 -100 -26 -174 -5 -226 63 -26 34 -28 43 -28 127 0 87 2 95 42 176 114
229 372 465 577 527 79 24 153 22 202 -6 45 -25 84 -83 84 -125 0 -14 3 -26 8
-26 4 0 53 73 108 163 56 89 204 325 329 525 l228 362 78 0 c45 0 79 -4 79
-10z"/>
<path d="M4393 7580 c-133 -30 -358 -265 -467 -487 -52 -104 -71 -178 -62
-241 16 -121 97 -131 243 -31 181 125 418 435 439 574 9 64 -11 151 -39 169
-30 18 -75 25 -114 16z"/>
<path d="M7543 7580 c-18 -4 -57 -22 -87 -40 -210 -127 -409 -434 -423 -650
-7 -122 35 -177 127 -165 210 25 482 370 530 672 22 134 -39 209 -147 183z"/>
<path d="M10657 7579 c-211 -50 -482 -406 -504 -663 -8 -105 26 -166 95 -166
61 0 246 129 338 236 139 161 234 357 234 480 0 42 -35 93 -75 110 -38 16 -35
15 -88 3z"/>
<path d="M12590 7548 c-119 -68 -364 -368 -301 -368 25 0 156 47 226 81 149
73 233 154 242 233 11 91 -62 114 -167 54z"/>
<path d="M5107 7263 c-26 -38 -61 -87 -78 -110 -32 -42 -32 -42 -15 -77 15
-31 15 -39 2 -70 -8 -18 -22 -38 -31 -43 -19 -11 -75 -5 -75 8 0 17 -27 9 -50
-16 -19 -20 -22 -32 -18 -73 6 -63 30 -96 93 -127 108 -53 192 -42 266 35 36
37 49 59 58 99 14 67 14 115 -2 171 -20 73 -91 270 -98 270 -3 0 -27 -30 -52
-67z"/>
<path d="M11343 7220 c-66 -88 -79 -111 -68 -120 22 -19 27 -65 11 -104 -13
-32 -19 -36 -52 -36 -21 0 -46 7 -56 17 -17 15 -19 15 -38 -2 -11 -10 -23 -33
-26 -52 -16 -83 42 -160 142 -189 103 -30 195 4 249 90 28 46 30 56 30 145 0
90 -3 104 -49 229 -27 72 -52 132 -55 132 -3 0 -43 -50 -88 -110z"/>
<path d="M8535 6924 c-116 -18 -207 -49 -239 -81 -42 -42 -31 -101 24 -118 51
-16 155 40 257 138 58 55 75 79 56 76 -5 -1 -48 -7 -98 -15z"/>
</g>
</svg>
